<svg width="32" height="32" viewBox="0 0 32 32" fill="none" xmlns="http://www.w3.org/2000/svg">
<path d="M12.6562 9.26843C12.1875 8.51843 11.375 8.01843 10.5 8.01843C9.59375 8.01843 8.78125 8.51843 8.3125 9.26843C7.875 10.0497 7.875 11.0184 8.3125 11.7684C8.78125 12.5497 9.59375 13.0184 10.5 13.0184C11.375 13.0184 12.1875 12.5497 12.6562 11.7684C13.0938 11.0184 13.0938 10.0497 12.6562 9.26843Z" fill="#212529"/>
<path d="M9.3125 14.0184C7.46875 14.0184 6 15.5184 6 17.3622C6 17.7372 6.28125 18.0184 6.65625 18.0184H13.3438C12.5 17.2997 12 16.2372 12 15.0184C12 14.7997 12 14.5497 12.0625 14.3309C11.625 14.1434 11.1562 14.0184 10.6562 14.0184H9.3125Z" fill="#212529"/>
<path d="M19.9688 15.0184C19.9688 16.2372 19.4688 17.2997 18.625 18.0184H25.3125C25.6875 18.0184 26 17.7372 26 17.3622C26 15.5184 24.5 14.0184 22.6562 14.0184H21.3125C20.8125 14.0184 20.3438 14.1434 19.9375 14.3309C19.9688 14.5497 19.9688 14.7997 19.9688 15.0184Z" fill="#212529"/>
<path d="M14.5 12.4247C13.5625 12.9872 13 13.9559 13 15.0184C13 16.1122 13.5625 17.0809 14.5 17.6434C15.4062 18.1747 16.5625 18.1747 17.5 17.6434C18.4062 17.0809 19 16.1122 19 15.0184C19 13.9559 18.4062 12.9872 17.5 12.4247C16.5625 11.8934 15.4062 11.8934 14.5 12.4247Z" fill="#212529"/>
<path d="M14.1562 19.0184C11.8438 19.0184 10 20.8934 10 23.2059C10 23.6747 10.375 24.0184 10.8125 24.0184H21.1562C21.625 24.0184 22 23.6434 22 23.2059C22 20.8934 20.125 19.0184 17.8125 19.0184H14.1562Z" fill="#212529"/>
<path d="M20.7071 8.31133C20.3166 7.9208 19.6834 7.9208 19.2929 8.31133C18.9024 8.70185 18.9024 9.33502 19.2929 9.72554L20.0858 10.5184L19.2929 11.3113C18.9024 11.7019 18.9024 12.335 19.2929 12.7255C19.6834 13.1161 20.3166 13.1161 20.7071 12.7255L21.5 11.9326L22.2929 12.7255C22.6834 13.1161 23.3166 13.1161 23.7071 12.7255C24.0976 12.335 24.0976 11.7019 23.7071 11.3113L22.9142 10.5184L23.7071 9.72554C24.0976 9.33502 24.0976 8.70185 23.7071 8.31133C23.3166 7.9208 22.6834 7.9208 22.2929 8.31133L21.5 9.10422L20.7071 8.31133Z" fill="#212529"/>
</svg>
