<svg width="32" height="32" viewBox="0 0 32 32" fill="none" xmlns="http://www.w3.org/2000/svg">
<path d="M10.5 8C11.375 8 12.1875 8.5 12.6562 9.25C13.0938 10.0312 13.0938 11 12.6562 11.75C12.1875 12.5312 11.375 13 10.5 13C9.59375 13 8.78125 12.5312 8.3125 11.75C7.875 11 7.875 10.0312 8.3125 9.25C8.78125 8.5 9.59375 8 10.5 8ZM22 8C22.875 8 23.6875 8.5 24.1562 9.25C24.5938 10.0312 24.5938 11 24.1562 11.75C23.6875 12.5312 22.875 13 22 13C21.0938 13 20.2812 12.5312 19.8125 11.75C19.375 11 19.375 10.0312 19.8125 9.25C20.2812 8.5 21.0938 8 22 8ZM6 17.3438C6 15.5 7.46875 14 9.3125 14H10.6562C11.1562 14 11.625 14.125 12.0625 14.3125C12 14.5312 12 14.7812 12 15C12 16.2188 12.5 17.2812 13.3438 18C13.3438 18 13.3438 18 13.3125 18H6.65625C6.28125 18 6 17.7188 6 17.3438ZM18.6562 18H18.625C19.4688 17.2812 19.9688 16.2188 19.9688 15C19.9688 14.7812 19.9688 14.5312 19.9375 14.3125C20.3438 14.125 20.8125 14 21.3125 14H22.6562C24.5 14 26 15.5 26 17.3438C26 17.7188 25.6875 18 25.3125 18H18.6562ZM13 15C13 13.9375 13.5625 12.9688 14.5 12.4062C15.4062 11.875 16.5625 11.875 17.5 12.4062C18.4062 12.9688 19 13.9375 19 15C19 16.0938 18.4062 17.0625 17.5 17.625C16.5625 18.1562 15.4062 18.1562 14.5 17.625C13.5625 17.0625 13 16.0938 13 15ZM10 23.1875C10 20.875 11.8438 19 14.1562 19H17.8125C20.125 19 22 20.875 22 23.1875C22 23.625 21.625 24 21.1562 24H10.8125C10.375 24 10 23.6562 10 23.1875Z" fill="#212529"/>
</svg>
